<svg width="73" height="73" viewBox="0 0 73 73" fill="none" xmlns="http://www.w3.org/2000/svg">
<g clip-path="url(#clip0)" filter="url(#filter0_d)">
<path d="M20.6621 29.3122C23.5493 30.6068 26.9393 29.3159 28.234 26.4288C29.5287 23.5417 28.2378 20.1516 25.3506 18.8569C22.4635 17.5623 19.0735 18.8532 17.7788 21.7403C16.4841 24.6274 17.775 28.0175 20.6621 29.3122Z" fill="white"/>
<path d="M33.8228 25.1676C36.7099 26.4623 40.0999 25.1714 41.3946 22.2843C42.6893 19.3971 41.3984 16.0071 38.5113 14.7124C35.6242 13.4177 32.2341 14.7086 30.9394 17.5958C29.6447 20.4829 30.9357 23.8729 33.8228 25.1676Z" fill="white"/>
<path d="M46.3687 30.7941C49.2558 32.0888 52.6458 30.7979 53.9405 27.9107C55.2352 25.0236 53.9443 21.6336 51.0572 20.3389C48.1701 19.0442 44.78 20.3351 43.4853 23.2222C42.1906 26.1094 43.4816 29.4994 46.3687 30.7941Z" fill="white"/>
<path d="M52.0274 43.3776C54.9145 44.6723 58.3045 43.3814 59.5992 40.4942C60.8939 37.6071 59.603 34.2171 56.7159 32.9224C53.8288 31.6277 50.4387 32.9186 49.144 35.8057C47.8493 38.6929 49.1403 42.0829 52.0274 43.3776Z" fill="white"/>
<path d="M44.829 47.3326C43.9662 44.384 43.2555 41.8803 42.3719 38.9222C41.9164 37.3617 41.189 35.6793 39.9503 34.5211C39.7578 34.3343 39.5559 34.1684 39.3447 34.0234C38.8594 33.7054 38.2948 33.4522 37.7512 33.2084C37.2075 32.9646 36.6429 32.7114 36.0524 32.5722C35.8036 32.5108 35.5455 32.4704 35.2779 32.4509C33.5892 32.2964 31.87 32.8817 30.3808 33.5701C27.6052 34.8872 25.2629 36.0218 22.4664 37.3295C18.4987 38.8404 13.7725 40.3627 12.4962 44.8888C12.1462 47.2936 12.7256 50.0901 15.1929 51.9249C16.5787 52.9231 22.0041 53.8742 27.1898 56.1997L27.5662 56.3685C32.752 58.694 37.0803 62.0916 38.738 62.4834C41.7492 63.1054 44.2321 61.6571 45.7856 59.817C48.3467 55.842 46.3398 51.3003 44.829 47.3326Z" fill="white"/>
</g>
<defs>
<filter id="filter0_d" x="-4" y="0" width="80.6898" height="80.6898" filterUnits="userSpaceOnUse" color-interpolation-filters="sRGB">
<feFlood flood-opacity="0" result="BackgroundImageFix"/>
<feColorMatrix in="SourceAlpha" type="matrix" values="0 0 0 0 0 0 0 0 0 0 0 0 0 0 0 0 0 0 127 0"/>
<feOffset dy="4"/>
<feGaussianBlur stdDeviation="2"/>
<feColorMatrix type="matrix" values="0 0 0 0 0 0 0 0 0 0 0 0 0 0 0 0 0 0 0.25 0"/>
<feBlend mode="normal" in2="BackgroundImageFix" result="effect1_dropShadow"/>
<feBlend mode="normal" in="SourceGraphic" in2="effect1_dropShadow" result="shape"/>
</filter>
<clipPath id="clip0">
<rect width="55" height="55" fill="white" transform="translate(22.5049) rotate(24.1533)"/>
</clipPath>
</defs>
</svg>
